<svg width="128.022" xmlns="http://www.w3.org/2000/svg" height="75.96" id="screenshot-84e2d820-f88f-80ce-8006-8845104eaec5" viewBox="0 0 128.022 75.96" xmlns:xlink="http://www.w3.org/1999/xlink" fill="none" version="1.1"><g id="shape-84e2d820-f88f-80ce-8006-8845104eaec5" width="300" height="178" rx="0" ry="0" style="fill: rgb(0, 0, 0);"><g id="shape-84e2d820-f88f-80ce-8006-8845104eaec6" style="display: none;"><g class="fills" id="fills-84e2d820-f88f-80ce-8006-8845104eaec6"><rect width="128.02247191011202" height="75.96000000000004" x="0" transform="matrix(1.000000, 0.000000, 0.000000, 1.000000, 0.000000, 0.000000)" style="fill: none;" ry="0" fill="none" rx="0" y="0"/></g></g><g id="shape-84e2d820-f88f-80ce-8006-8845104eaec7"><g class="fills" id="fills-84e2d820-f88f-80ce-8006-8845104eaec7"><path d="M114.36670684814453,4.267398357391357C114.36670684814453,6.238955974578857,114.36670684814453,8.2105131149292,114.36670684814453,10.24182415008545C114.83985137939453,10.0569486618042,115.31299591064453,9.8721342086792,115.80030059814453,9.6817045211792C116.42481231689453,9.44153118133545,117.04932403564453,9.2014799118042,117.67407989501953,8.96155071258545C117.98535919189453,8.8394193649292,118.29663848876953,8.7173490524292,118.61743927001953,8.5914945602417C118.91992950439453,8.47595500946045,119.22266387939453,8.36047649383545,119.53443145751953,8.24145793914795C119.81153106689453,8.13415813446045,120.08863067626953,8.0269193649292,120.37403106689453,7.916385173797607C121.19458770751953,7.681338787078857,121.19458770751953,7.681338787078857,122.90161895751953,7.681338787078857C122.27759552001953,11.03784465789795,122.27759552001953,11.03784465789795,120.80127716064453,12.1271390914917C118.70386505126953,13.0708646774292,116.62085723876953,13.51892375946045,114.36670684814453,14.0824613571167C114.36670684814453,23.236087799072266,114.36670684814453,32.389713287353516,114.36670684814453,41.820682525634766C116.33838653564453,41.820682525634766,118.30982208251953,41.820682525634766,120.34107208251953,41.820682525634766C123.60572052001953,43.452945709228516,123.60572052001953,43.452945709228516,124.18189239501953,44.381107330322266C124.44409942626953,46.414188385009766,124.52344512939453,47.299198150634766,123.35498809814453,48.995243072509766C120.52222442626953,51.018741607666016,117.38672637939453,51.683292388916016,113.93994903564453,51.208988189697266C111.74927520751953,50.615055084228516,110.10645294189453,49.956180572509766,108.52564239501953,48.301822662353516C108.19995880126953,47.993778228759766,107.87451934814453,47.685733795166016,107.53882598876953,47.368289947509766C104.99292755126953,47.475589752197266,102.86353302001953,48.381534576416016,100.55103302001953,49.395328521728516C99.96997833251953,49.648563385009766,99.96997833251953,49.648563385009766,99.37720489501953,49.906864166259766C87.86792755126953,55.016666412353516,75.02979278564453,61.405521392822266,65.86304473876953,70.2244873046875C64.38037872314453,71.45501708984375,63.22315216064453,71.52484130859375,61.28760528564453,71.508056640625C60.83130645751953,71.508544921875,60.83130645751953,71.508544921875,60.36573028564453,71.509033203125C59.36792755126953,71.507568359375,58.37110137939453,71.490966796875,57.37329864501953,71.4742431640625C56.67871856689453,71.47021484375,55.98389434814453,71.46722412109375,55.28907012939453,71.465087890625C53.46631622314453,71.45697021484375,51.64380645751953,71.43603515625,49.82129669189453,71.412353515625C47.95899200439453,71.3905029296875,46.09668731689453,71.38079833984375,44.23438262939453,71.37005615234375C40.58472442626953,71.34716796875,36.93531036376953,71.310791015625,33.28589630126953,71.265869140625C34.45142364501953,70.0340576171875,35.58325958251953,69.41656494140625,37.12329864501953,68.68536376953125C37.38111114501953,68.56256103515625,37.63916778564453,68.43975830078125,37.90503692626953,68.313232421875C38.76392364501953,67.90667724609375,39.62525177001953,67.50537109375,40.48706817626953,67.1051025390625C40.78687286376953,66.9652099609375,41.08667755126953,66.8253173828125,41.39551544189453,66.68121337890625C56.98023223876953,59.429386138916016,73.13208770751953,53.510623931884766,89.53565216064453,48.408512115478516C89.94190216064453,48.282169342041016,90.34815216064453,48.155765533447266,90.76660919189453,48.025638580322266C103.90113067626953,43.954410552978516,103.90113067626953,43.954410552978516,106.25855255126953,43.954410552978516C106.11792755126953,41.419559478759766,105.97705841064453,38.884708404541016,105.83179473876953,36.273014068603516C105.24219512939453,36.933170318603516,104.65259552001953,37.593265533447266,104.04492950439453,38.273380279541016C103.36084747314453,39.029605865478516,102.67652130126953,39.785343170166016,101.99121856689453,40.540470123291016C101.64795684814453,40.918949127197266,101.30469512939453,41.297367095947266,100.95093536376953,41.687320709228516C97.37305450439453,44.916385650634766,93.81128692626953,47.155582427978516,88.86890411376953,46.941593170166016C86.63355255126953,46.670047760009766,85.66919708251953,45.902286529541016,84.06812286376953,44.381107330322266C82.61182403564453,44.866519927978516,82.42432403564453,45.192386627197266,81.53443145751953,46.381473541259766C79.42603302001953,48.886173248291016,76.21045684814453,50.625614166259766,72.97290802001953,51.208988189697266C69.47486114501953,51.483768463134766,67.37232208251953,51.031497955322266,64.43799591064453,49.075260162353516C64.29761505126953,49.297000885009766,64.15747833251953,49.518680572509766,64.01294708251953,49.747074127197266C62.09595489501953,52.557498931884766,59.72193145751953,54.384708404541016,56.32984161376953,55.049686431884766C54.04053497314453,55.195011138916016,52.64038848876953,55.255924224853516,50.78223419189453,53.769474029541016C48.89746856689453,51.682682037353516,49.01441192626953,49.530033111572266,49.02686309814453,46.831974029541016C49.02686309814453,46.477909088134766,49.02661895751953,46.123905181884766,49.02661895751953,45.759098052978516C49.02686309814453,44.590763092041016,49.03028106689453,43.422428131103516,49.03369903564453,42.254093170166016C49.03443145751953,41.443302154541016,49.03491973876953,40.632450103759766,49.03540802001953,39.821659088134766C49.03711700439453,37.688907623291016,49.04126739501953,35.556217193603516,49.04590606689453,33.423526763916016C49.05030059814453,31.246707916259766,49.05225372314453,29.069889068603516,49.05445098876953,26.893070220947266C49.05908966064453,22.622867584228516,49.06641387939453,18.352664947509766,49.07520294189453,14.0824613571167C50.34619903564453,13.5834379196167,51.61768341064453,13.0860013961792,52.88916778564453,12.58887004852295C53.25196075439453,12.44641399383545,53.61475372314453,12.30395793914795,53.98853302001953,12.15710735321045C54.33374786376953,12.02234172821045,54.67896270751953,11.88757610321045,55.03467559814453,11.7487211227417C55.51392364501953,11.56103801727295,55.51392364501953,11.56103801727295,56.00318145751953,11.36950969696045C56.75659942626953,11.0952787399292,56.75659942626953,11.0952787399292,57.18335723876953,11.0952787399292C57.18848419189453,11.72827434539795,57.18848419189453,11.72827434539795,57.19385528564453,12.3740873336792C57.22681427001953,16.354862213134766,57.26441192626953,20.335575103759766,57.30615997314453,24.316287994384766C57.32740020751953,26.362674713134766,57.34717559814453,28.409122467041016,57.36328887939453,30.455570220947266C57.37915802001953,32.431217193603516,57.39893341064453,34.406803131103516,57.42163848876953,36.382389068603516C57.42945098876953,37.135379791259766,57.43579864501953,37.888370513916016,57.44092559814453,38.641422271728516C57.44800567626953,39.697696685791016,57.46045684814453,40.753849029541016,57.47412872314453,41.810062408447266C57.47486114501953,42.120059967041016,57.47583770751953,42.430118560791016,57.47681427001953,42.749515533447266C57.50684356689453,44.584598541259766,57.79370880126953,46.087100982666016,58.46363067626953,47.795047760009766C60.03955841064453,47.687625885009766,60.84400177001953,47.520694732666016,62.06421661376953,46.488162994384766C62.82178497314453,45.064029693603516,62.74170684814453,44.294925689697266,62.46436309814453,42.734195709228516C61.50244903564453,37.243289947509766,63.09033966064453,30.455631256103516,65.97998809814453,25.767887115478516C68.05445098876953,22.872806549072266,70.42945098876953,21.152042388916016,73.82617950439453,20.056888580322266C76.08863067626953,19.684635162353516,77.81397247314453,19.653202056884766,79.82740020751953,20.803653717041016C81.68091583251953,22.956058502197266,81.69214630126953,24.792972564697266,81.63941192626953,27.573184967041016C81.30054473876953,31.291629791259766,79.59839630126953,34.245975494384766,76.81348419189453,36.699771881103516C75.05396270751953,37.927188873291016,73.30591583251953,39.006961822509766,71.26587677001953,39.686954498291016C71.30982208251953,40.215091705322266,71.35376739501953,40.743167877197266,71.39917755126953,41.287235260009766C71.42383575439453,41.584293365478516,71.44873809814453,41.881351470947266,71.47412872314453,42.187381744384766C71.75147247314453,43.347660064697266,72.12818145751953,43.965091705322266,72.97290802001953,44.807865142822266C75.31031036376953,45.221378326416016,77.40113067626953,44.432682037353516,79.34717559814453,43.180912017822266C81.51367950439453,41.651554107666016,82.43262481689453,40.318119049072266,82.90625762939453,37.678287506103516C83.21460723876953,36.699771881103516,83.21460723876953,36.699771881103516,84.01465606689453,35.386234283447266C85.18750762939453,33.397342681884766,85.67603302001953,31.270694732666016,86.22852325439453,29.045108795166016C86.40064239501953,28.396976470947266,86.40064239501953,28.396976470947266,86.57642364501953,27.735721588134766C87.08570098876953,25.767520904541016,87.53052520751953,23.874210357666016,87.66040802001953,21.842166900634766C87.78589630126953,20.087650299072266,87.94751739501953,18.666202545166016,88.76221466064453,17.069644927978516C90.92823028564453,15.47766399383545,93.79102325439453,14.4808988571167,96.44361114501953,14.0824613571167C97.29712677001953,14.5092191696167,97.29712677001953,14.5092191696167,97.73291778564453,15.80151653289795C97.88916778564453,16.376590728759766,98.04151153564453,16.952762603759766,98.19068145751953,17.529727935791016C98.27246856689453,17.838016510009766,98.35449981689453,18.146305084228516,98.43921661376953,18.463932037353516C98.61280059814453,19.120731353759766,98.78491973876953,19.778018951416016,98.95557403564453,20.435672760009766C99.21216583251953,21.423099517822266,99.47510528564453,22.408634185791016,99.73926544189453,23.394107818603516C100.71949005126953,27.101383209228516,101.51197052001953,30.756168365478516,101.99121856689453,34.566043853759766C105.52735137939453,30.647708892822266,105.87183380126953,26.689273834228516,106.07202911376953,21.603824615478516C106.09961700439453,20.949466705322266,106.09961700439453,20.949466705322266,106.12769317626953,20.281925201416016C106.17285919189453,19.211185455322266,106.21582794189453,18.140445709228516,106.25855255126953,17.069644927978516C104.99121856689453,17.632938385009766,103.72388458251953,18.196292877197266,102.41797637939453,18.776615142822266C102.74634552001953,15.36267375946045,102.74634552001953,15.36267375946045,104.12500762939453,14.0824613571167C104.82910919189453,13.94165325164795,105.53321075439453,13.8008451461792,106.25855255126953,13.6557035446167C106.25855255126953,11.4025297164917,106.25855255126953,9.1493558883667,106.25855255126953,6.827884197235107C112.36426544189453,4.267398357391357,112.36426544189453,4.267398357391357,114.36670684814453,4.267398357391357ZM73.80469512939453,25.031070709228516C71.26490020751953,28.084903717041016,70.97461700439453,32.451786041259766,70.83911895751953,36.273014068603516C73.59864044189453,35.003665924072266,74.93238067626953,33.375553131103516,76.38672637939453,30.725406646728516C76.80518341064453,29.469791412353516,76.88379669189453,28.595584869384766,76.89356231689453,27.284793853759766C76.90259552001953,26.722843170166016,76.90259552001953,26.722843170166016,76.91187286376953,26.149600982666016C76.90845489501953,25.092716217041016,76.90845489501953,25.092716217041016,75.95996856689453,24.324283599853516C74.65821075439453,24.190189361572266,74.65821075439453,24.190189361572266,73.80469512939453,25.031070709228516ZM90.46924591064453,24.751041412353516C90.11182403564453,26.084110260009766,89.75684356689453,27.417850494384766,89.40235137939453,28.751712799072266C89.30054473876953,29.131290435791016,89.19873809814453,29.510868072509766,89.09400177001953,29.901920318603516C88.99781036376953,30.264957427978516,88.90137481689453,30.628055572509766,88.80225372314453,31.002140045166016C88.71289825439453,31.337345123291016,88.62354278564453,31.672550201416016,88.53125762939453,32.017887115478516C88.30323028564453,32.853702545166016,88.30323028564453,32.853702545166016,88.33545684814453,33.712589263916016C88.85034942626953,33.989810943603516,88.85034942626953,33.989810943603516,89.37574005126953,34.272708892822266C90.46924591064453,34.992801666259766,90.46924591064453,34.992801666259766,90.89600372314453,35.953006744384766C90.89600372314453,37.632633209228516,90.44947052001953,38.661502838134766,89.61573028564453,40.113712310791016C88.25537872314453,40.940494537353516,88.25537872314453,40.940494537353516,87.05518341064453,41.393924713134766C87.33692169189453,41.675601959228516,87.61865997314453,41.957218170166016,87.90869903564453,42.247440338134766C89.77783966064453,42.212162017822266,90.66846466064453,42.008670806884766,92.12281036376953,40.807193756103516C93.60742950439453,38.973209381103516,93.61206817626953,37.265201568603516,93.45630645751953,34.992801666259766C93.25513458251953,33.756534576416016,92.96582794189453,32.552005767822266,92.65625762939453,31.338809967041016C92.58203887939453,31.033267974853516,92.50782012939453,30.727664947509766,92.43115997314453,30.412845611572266C91.96411895751953,28.511905670166016,91.44409942626953,26.630008697509766,90.89600372314453,24.751041412353516C90.75513458251953,24.751041412353516,90.61426544189453,24.751041412353516,90.46924591064453,24.751041412353516ZM114.79346466064453,44.807865142822266C115.23120880126953,45.961795806884766,115.63526153564453,46.505435943603516,116.60718536376953,47.288333892822266C118.05933380126953,47.915409088134766,118.83203887939453,47.770755767822266,120.34107208251953,47.368289947509766C120.62281036376953,47.227481842041016,120.90430450439453,47.086673736572266,121.19458770751953,46.941593170166016C121.14624786376953,46.105594635009766,121.14624786376953,46.105594635009766,120.76782989501953,45.234622955322266C118.98706817626953,44.187137603759766,116.67969512939453,43.864749908447266,114.79346466064453,44.807865142822266Z" style="fill: rgb(169, 42, 54);"/></g></g><g id="shape-84e2d820-f88f-80ce-8006-8845104eaec8"><g class="fills" id="fills-84e2d820-f88f-80ce-8006-8845104eaec8"><path d="M38.16675567626953,11.17529582977295C40.48926544189453,13.72449016571045,41.25025177001953,16.307010650634766,41.10230255126953,19.733463287353516C40.67456817626953,23.459964752197266,39.16797637939453,26.339908599853516,37.12647247314453,29.445194244384766C37.39990997314453,29.512821197509766,37.67334747314453,29.580509185791016,37.95508575439453,29.650211334228516C40.88574981689453,30.440738677978516,43.35498809814453,31.217350006103516,45.02295684814453,33.885929107666016C48.06275177001953,39.774906158447266,47.57324981689453,46.867923736572266,45.77637481689453,53.115970611572266C44.97437286376953,55.346805572509766,43.97608184814453,57.338565826416016,42.67407989501953,59.317081451416016C42.51294708251953,59.569583892822266,42.35181427001953,59.822086334228516,42.18579864501953,60.082218170166016C40.50342559814453,62.394718170166016,37.66822052001953,63.972904205322266,34.99292755126953,64.86474609375C32.77783966064453,65.07684326171875,30.86768341064453,65.08441162109375,28.77832794189453,64.2779541015625C27.27149200439453,62.655033111572266,27.02783966064453,61.063785552978516,26.88477325439453,58.890323638916016C26.93848419189453,57.843753814697266,27.08789825439453,56.931705474853516,27.31153106689453,55.903141021728516C28.16504669189453,56.329898834228516,29.01831817626953,56.756656646728516,29.87183380126953,57.183353424072266C31.57105255126953,57.294193267822266,32.69849395751953,57.253238677978516,34.13941192626953,56.329898834228516C37.00464630126953,52.356510162353516,37.42188262939453,47.430301666259766,36.92823028564453,42.697513580322266C36.47461700439453,40.108097076416016,35.74951934814453,38.242801666259766,33.79248809814453,36.459720611572266C31.16431427001953,35.274417877197266,29.11939239501953,35.906742095947266,26.45801544189453,36.699771881103516C26.45459747314453,36.995975494384766,26.45117950439453,37.292179107666016,26.44751739501953,37.597354888916016C26.41407012939453,40.403385162353516,26.37671661376953,43.209354400634766,26.33521270751953,46.015262603759766C26.31397247314453,47.457462310791016,26.29419708251953,48.899600982666016,26.27783966064453,50.341861724853516C26.25830841064453,52.004032135009766,26.23365020751953,53.666019439697266,26.20801544189453,55.328067779541016C26.20288848876953,55.840274810791016,26.19800567626953,56.352542877197266,26.19287872314453,56.880313873291016C26.06348419189453,64.31982421875,26.06348419189453,64.31982421875,23.87427520751953,67.1251220703125C21.15918731689453,69.50201416015625,17.63965606689453,70.9110107421875,14.082527160644531,71.265869140625C14.139167785644531,71.0281982421875,14.195808410644531,70.79058837890625,14.254158020019531,70.54571533203125C14.329597473144531,70.22003173828125,14.404792785644531,69.8944091796875,14.482429504394531,69.55889892578125C14.556892395019531,69.24200439453125,14.631111145019531,68.9251708984375,14.707527160644531,68.59869384765625C15.256599426269531,65.7774658203125,15.425056457519531,63.037479400634766,15.423347473144531,60.172550201416016C15.424812316894531,59.804996490478516,15.426277160644531,59.437442779541016,15.427742004394531,59.058719635009766C15.430915832519531,58.266178131103516,15.433113098144531,57.473575592041016,15.434577941894531,56.680973052978516C15.437751770019531,55.422794342041016,15.444343566894531,54.164676666259766,15.452400207519531,52.906497955322266C15.474617004394531,49.331119537353516,15.495124816894531,45.755680084228516,15.501716613769531,42.180240631103516C15.506111145019531,39.987552642822266,15.518562316894531,37.795047760009766,15.536384582519531,35.602420806884766C15.541755676269531,34.771366119384766,15.543952941894531,33.940311431884766,15.542976379394531,33.109256744384766C15.538093566894531,27.578495025634766,15.542732238769531,22.479068756103516,19.60498809814453,18.233219146728516C21.58985137939453,16.568546295166016,23.70801544189453,15.45263957977295,26.29785919189453,15.2293119430542C26.63233184814453,15.2733793258667,26.96680450439453,15.31738567352295,27.31153106689453,15.36267375946045C27.17237091064453,15.78796672821045,27.03321075439453,16.213199615478516,26.88990020751953,16.651371002197266C26.41284942626953,18.328250885009766,26.36060333251953,19.881473541259766,26.37451934814453,21.628787994384766C26.37647247314453,22.077091217041016,26.37647247314453,22.077091217041016,26.37818145751953,22.534488677978516C26.38306427001953,23.477909088134766,26.39380645751953,24.421085357666016,26.40454864501953,25.364444732666016C26.40894317626953,26.008731842041016,26.41284942626953,26.653018951416016,26.41626739501953,27.297306060791016C26.42554473876953,28.866825103759766,26.44043731689453,30.436222076416016,26.45801544189453,32.005619049072266C29.53272247314453,29.997684478759766,31.61573028564453,27.756778717041016,32.65747833251953,24.164249420166016C33.16944122314453,21.320072174072266,33.49903106689453,17.962100982666016,32.21900177001953,15.2826566696167C30.84375762939453,13.7355375289917,29.79883575439453,13.0631742477417,27.73828887939453,12.80224895477295C23.82056427001953,12.9812650680542,20.20337677001953,14.17065715789795,17.25635528564453,16.821292877197266C12.894783020019531,21.621341705322266,12.034187316894531,28.312931060791016,11.708747863769531,34.539371490478516C11.690193176269531,34.871952056884766,11.671882629394531,35.204471588134766,11.652839660644531,35.547061920166016C11.608161926269531,36.357975006103516,11.564949035644531,37.169010162353516,11.521980285644531,37.979984283447266C9.268074035644531,36.388919830322266,7.159919738769531,34.658695220947266,5.094245910644531,32.832462310791016C4.839607238769531,32.616397857666016,4.585212707519531,32.400333404541016,4.323005676269531,32.177738189697266C3.612312078475952,31.537235260009766,3.612312078475952,31.537235260009766,2.560554265975952,30.298648834228516C2.390632390975952,25.970706939697266,7.069587707519531,20.075626373291016,9.814949035644531,17.069644927978516C10.066902160644531,16.773746490478516,10.318855285644531,16.477787017822266,10.578620910644531,16.172855377197266C13.763435363769531,12.66260051727295,18.43921661376953,10.0692777633667,23.04395294189453,8.96155071258545C23.36353302001953,8.88452434539795,23.68335723876953,8.8075590133667,24.01245880126953,8.7282133102417C28.90894317626953,7.915652751922607,34.02100372314453,8.21264934539795,38.16675567626953,11.17529582977295Z" style="fill: rgb(169, 42, 54);"/></g></g></g></svg>